<?xml version="1.0" encoding="utf-8"?>
<!-- Generated by IcoMoon.io -->
<!DOCTYPE svg PUBLIC "-//W3C//DTD SVG 1.1//EN" "http://www.w3.org/Graphics/SVG/1.1/DTD/svg11.dtd">
<svg version="1.1" xmlns="http://www.w3.org/2000/svg" xmlns:xlink="http://www.w3.org/1999/xlink" width="48" height="48" viewBox="0 0 48 48">
<g>
</g>
	<path d="M43.050 10.95h-38.1c-2.7 0-4.95-2.1-4.95-4.95s2.25-4.95 4.95-4.95h37.95c2.85 0 5.1 2.25 5.1 4.95s-2.25 4.95-4.95 4.95z" fill="#000000"></path>
	<path d="M43.050 28.95h-38.1c-2.7 0-4.95-2.25-4.95-4.95s2.25-4.95 4.95-4.95h37.95c2.7 0 4.95 2.25 4.95 4.95s-2.1 4.95-4.8 4.95z" fill="#000000"></path>
	<path d="M43.050 46.95h-38.1c-2.7 0-4.95-2.25-4.95-4.95s2.25-4.95 4.95-4.95h37.95c2.7 0 4.95 2.25 4.95 4.95 0.15 2.7-2.1 4.95-4.8 4.95z" fill="#000000"></path>
</svg>
