<?xml version="1.0" encoding="utf-8"?>
<!-- Generator: Adobe Illustrator 15.0.0, SVG Export Plug-In . SVG Version: 6.00 Build 0)  -->
<!DOCTYPE svg PUBLIC "-//W3C//DTD SVG 1.1//EN" "http://www.w3.org/Graphics/SVG/1.1/DTD/svg11.dtd">
<svg version="1.1" id="Layer_1" xmlns="http://www.w3.org/2000/svg" xmlns:xlink="http://www.w3.org/1999/xlink" x="0px" y="0px"
	 width="144px" height="96px" viewBox="120.518 120.518 144 96" enable-background="new 120.518 120.518 144 96"
	 xml:space="preserve">
<g id="icon-menu-dark">
	<path fill="#FFFFFF" d="M131.083,136.986h26.901c1.411,0,2.589-1.178,2.589-2.588c0-1.412-1.178-2.588-2.667-2.588h-26.823
		c-1.411,0-2.588,1.098-2.588,2.588S129.672,136.986,131.083,136.986z"/>
	<path fill="#FFFFFF" d="M157.906,141.947h-26.823c-1.411,0-2.588,1.177-2.588,2.588c0,1.412,1.177,2.588,2.588,2.588h26.901
		c1.411,0,2.511-1.176,2.511-2.588C160.495,143.124,159.318,141.947,157.906,141.947z"/>
	<path fill="#FFFFFF" d="M157.906,152.084h-26.823c-1.411,0-2.588,1.176-2.588,2.588c0,1.411,1.177,2.588,2.588,2.588h26.901
		c1.411,0,2.589-1.177,2.511-2.588C160.495,153.26,159.318,152.084,157.906,152.084z"/>
</g>
<g id="icon-menu-light">
	<path fill="#404040" d="M157.967,184.951h-26.9c-1.412,0-2.588-1.098-2.588-2.588s1.176-2.588,2.588-2.588h26.822
		c1.49,0,2.668,1.176,2.668,2.588C160.557,183.773,159.379,184.951,157.967,184.951z"/>
	<path fill="#404040" d="M157.967,195.088h-26.9c-1.412,0-2.588-1.176-2.588-2.588c0-1.411,1.176-2.588,2.588-2.588h26.822
		c1.412,0,2.59,1.177,2.59,2.588C160.479,193.912,159.379,195.088,157.967,195.088z"/>
	<path fill="#404040" d="M157.967,205.225h-26.9c-1.412,0-2.588-1.177-2.588-2.588c0-1.412,1.176-2.588,2.588-2.588h26.822
		c1.412,0,2.59,1.176,2.59,2.588C160.557,204.048,159.379,205.225,157.967,205.225z"/>
</g>
<path id="icon-more-light" fill="#404040" d="M228.983,183.813l11.5,11.8l11.5-11.8c1-1.1,2.7-1.1,3.7,0c1,1,1,2.7,0,3.8
	l-13.3,13.601l0,0l0,0c-0.5,0.5-1.101,0.7-1.7,0.8h-0.101h-0.1c-0.6,0-1.3-0.3-1.7-0.8l0,0l0,0l-13.5-13.601c-1-1.1-1-2.8,0-3.8
	C226.283,182.713,227.884,182.713,228.983,183.813z"/>
<path id="icon-search-dark" fill="#FFFFFF" d="M188.942,128.548c-3.801,0-7.4,1.7-9.7,4.7c-3.601,4.5-3.5,11.2,0.1,15.6
	c2.4,2.9,5.9,4.5,9.601,4.5c2.399,0,4.699-0.7,6.6-1.899l0.2-0.101l8.399,8.5c0.9,0.9,2.601,0.9,3.5,0c0.5-0.5,0.801-1.1,0.801-1.8
	s-0.301-1.3-0.7-1.8l-8.4-8.5l0.2-0.2c3.1-4.9,2.4-11.2-1.8-15.4C195.442,129.848,192.242,128.548,188.942,128.548z
	 M195.242,147.248c-1.7,1.7-3.9,2.6-6.3,2.6c-2.4,0-4.601-0.899-6.301-2.6c-1.699-1.7-2.6-3.9-2.6-6.3c0-2.4,0.9-4.601,2.6-6.301
	c1.7-1.699,3.9-2.6,6.301-2.6c2.399,0,4.6,0.9,6.3,2.6c1.7,1.7,2.6,3.9,2.6,6.301C197.842,143.348,196.942,145.548,195.242,147.248z
	"/>
<path id="icon-search-light" fill="#404040" d="M188.926,176.513c-3.801,0-7.4,1.7-9.7,4.7c-3.601,4.5-3.5,11.2,0.1,15.6
	c2.4,2.9,5.9,4.5,9.601,4.5c2.399,0,4.699-0.7,6.6-1.899l0.2-0.101l8.399,8.5c0.9,0.9,2.601,0.9,3.5,0c0.5-0.5,0.801-1.1,0.801-1.8
	s-0.301-1.3-0.7-1.8l-8.4-8.5l0.2-0.2c3.1-4.9,2.4-11.2-1.8-15.4C195.426,177.813,192.226,176.513,188.926,176.513z
	 M195.226,195.213c-1.7,1.7-3.9,2.6-6.3,2.6c-2.4,0-4.601-0.899-6.301-2.6c-1.699-1.7-2.6-3.9-2.6-6.3c0-2.4,0.9-4.601,2.6-6.301
	c1.7-1.699,3.9-2.6,6.301-2.6c2.399,0,4.6,0.9,6.3,2.6c1.7,1.7,2.6,3.9,2.6,6.301C197.825,191.313,196.926,193.513,195.226,195.213z
	"/>
<path id="icon-more-dark" fill="#FFFFFF" d="M229,135.848l11.5,11.8l11.5-11.8c1-1.1,2.7-1.1,3.7,0c1,1,1,2.7,0,3.8l-13.3,13.601
	l0,0l0,0c-0.5,0.5-1.101,0.7-1.7,0.8H240.6h-0.1c-0.6,0-1.3-0.3-1.7-0.8l0,0l0,0l-13.5-13.601c-1-1.1-1-2.8,0-3.8
	C226.3,134.748,227.9,134.748,229,135.848z"/>
</svg>
