<?xml version="1.0" encoding="utf-8"?>
<!-- Generator: Adobe Illustrator 17.1.0, SVG Export Plug-In . SVG Version: 6.00 Build 0)  -->
<!DOCTYPE svg PUBLIC "-//W3C//DTD SVG 1.1//EN" "http://www.w3.org/Graphics/SVG/1.1/DTD/svg11.dtd">
<svg version="1.1" id="Layer_1" xmlns="http://www.w3.org/2000/svg" xmlns:xlink="http://www.w3.org/1999/xlink" x="0px" y="0px"
	 viewBox="0 0 32 32" enable-background="new 0 0 32 32" xml:space="preserve">
<symbol  id="Red_Guide" viewBox="-24 -24 48 48">
	<polygon opacity="0.15" fill="#FF0000" points="24,-24 -24,-24 -24,24 24,24 	"/>
	<polygon opacity="0.15" fill="#FF0000" points="16,-16 -16,-16 -16,16 16,16 	"/>
	<polygon opacity="0.15" fill="#FF0000" points="12,-12 -12,-12 -12,12 12,12 	"/>
</symbol>
<g id="Icon_Action_-_More_Actions">
	
		<use xlink:href="#Red_Guide"  width="48" height="48" id="XMLID_5_" x="-24" y="-24" transform="matrix(1 0 0 -1 16.0003 15.9997)" display="none" overflow="visible"/>
	<g>
		<g>
			<path d="M28.7,7.3H3.3C1.5,7.3,0,5.9,0,4s1.5-3.3,3.3-3.3h25.3C30.5,0.7,32,2.2,32,4S30.5,7.3,28.7,7.3z"/>
		</g>
		<g>
			<path d="M28.7,19.3H3.3C1.5,19.3,0,17.8,0,16s1.5-3.3,3.3-3.3h25.3c1.8,0,3.3,1.5,3.3,3.3S30.5,19.3,28.7,19.3z"/>
		</g>
		<g>
			<path d="M28.7,31.3H3.3C1.5,31.3,0,29.8,0,28c0-1.8,1.5-3.3,3.3-3.3h25.3c1.8,0,3.3,1.5,3.3,3.3C32,29.8,30.5,31.3,28.7,31.3z"/>
		</g>
	</g>
</g>
</svg>
