<?xml version="1.0" encoding="utf-8"?>
<!-- Generated by IcoMoon.io -->
<!DOCTYPE svg PUBLIC "-//W3C//DTD SVG 1.1//EN" "http://www.w3.org/Graphics/SVG/1.1/DTD/svg11.dtd">
<svg version="1.1" xmlns="http://www.w3.org/2000/svg" xmlns:xlink="http://www.w3.org/1999/xlink" width="32" height="32" viewBox="0 0 32 32">
<path d="M23.84 5.632l-10.592 10.368 10.592 10.368c0.96 0.928 0.96 2.432 0.032 3.36s-2.464 0.896-3.424-0.032l-12.288-12c0 0 0 0 0 0s0 0 0 0c-0.448-0.448-0.672-0.992-0.672-1.568 0-0.032 0-0.064 0-0.096s0-0.064 0-0.096c0.032-0.576 0.256-1.12 0.672-1.568 0 0 0 0 0 0s0 0 0 0l12.288-12.064c0.96-0.928 2.496-0.96 3.424-0.032s0.928 2.432-0.032 3.36z" fill="#333333"></path>
</svg>
