<?xml version="1.0" encoding="utf-8"?>
<!-- Generated by IcoMoon.io -->
<!DOCTYPE svg PUBLIC "-//W3C//DTD SVG 1.1//EN" "http://www.w3.org/Graphics/SVG/1.1/DTD/svg11.dtd">
<svg version="1.1" xmlns="http://www.w3.org/2000/svg" xmlns:xlink="http://www.w3.org/1999/xlink" width="32" height="32" viewBox="0 0 32 32">
<path d="M20.16 16l9.344-9.344c1.184-1.184 1.184-3.040 0.032-4.192s-3.040-1.12-4.192 0.032l-9.344 9.344-9.344-9.344c-1.184-1.184-3.040-1.184-4.192-0.032s-1.12 3.040 0.032 4.192l9.344 9.344-9.344 9.344c-1.184 1.184-1.184 3.040-0.032 4.192s3.040 1.12 4.192-0.032l9.344-9.344 9.344 9.344c1.184 1.184 3.040 1.184 4.192 0.032s1.12-3.040-0.032-4.192l-9.344-9.344z" fill="#333333"></path>
</svg>
