<?xml version="1.0" encoding="utf-8"?>
<!-- Generated by IcoMoon.io -->
<!DOCTYPE svg PUBLIC "-//W3C//DTD SVG 1.1//EN" "http://www.w3.org/Graphics/SVG/1.1/DTD/svg11.dtd">
<svg version="1.1" xmlns="http://www.w3.org/2000/svg" xmlns:xlink="http://www.w3.org/1999/xlink" width="32" height="32" viewBox="0 0 32 32">
<path d="M28.48 23.712h-24.928c-1.088 0-1.952 0.832-1.952 1.92s0.864 1.92 1.952 1.92h24.896c1.088 0 1.952-0.832 1.952-1.92s-0.832-1.92-1.92-1.92z" fill="#333333"></path>
<path d="M28.48 14.080h-24.928c-1.088 0-1.952 0.832-1.952 1.92s0.864 1.92 1.952 1.92h24.896c1.088 0 1.952-0.832 1.952-1.92s-0.832-1.92-1.92-1.92z" fill="#333333"></path>
<path d="M28.48 4.48h-24.928c-1.088 0-1.952 0.832-1.952 1.92s0.864 1.92 1.952 1.92h24.896c1.088 0 1.952-0.832 1.952-1.92s-0.832-1.92-1.92-1.92z" fill="#333333"></path>
</svg>
