<?xml version="1.0" encoding="utf-8"?>
<!-- Generated by IcoMoon.io -->
<!DOCTYPE svg PUBLIC "-//W3C//DTD SVG 1.1//EN" "http://www.w3.org/Graphics/SVG/1.1/DTD/svg11.dtd">
<svg version="1.1" xmlns="http://www.w3.org/2000/svg" xmlns:xlink="http://www.w3.org/1999/xlink" width="32" height="32" viewBox="0 0 32 32">
<path d="M22.848 11.936c0 1.078-0.874 1.952-1.952 1.952s-1.952-0.874-1.952-1.952c0-1.078 0.874-1.952 1.952-1.952s1.952 0.874 1.952 1.952z" fill="#333333"></path>
<path d="M13.056 11.936c0 1.078-0.874 1.952-1.952 1.952s-1.952-0.874-1.952-1.952c0-1.078 0.874-1.952 1.952-1.952s1.952 0.874 1.952 1.952z" fill="#333333"></path>
<path d="M16 1.6c-7.968 0-14.4 6.432-14.4 14.4s6.432 14.4 14.4 14.4 14.4-6.432 14.4-14.4-6.432-14.4-14.4-14.4zM16 28c-6.624 0-12-5.376-12-12s5.376-12 12-12c6.624 0 12 5.376 12 12s-5.376 12-12 12z" fill="#333333"></path>
<path d="M10.432 18.272c0.416 0 0.8 0.224 1.024 0.608 0.928 1.664 2.656 2.688 4.544 2.688s3.648-1.024 4.544-2.688c0.32-0.576 1.024-0.768 1.6-0.448s0.768 1.024 0.448 1.6c-1.312 2.4-3.84 3.904-6.592 3.904s-5.28-1.504-6.592-3.904c-0.32-0.576-0.096-1.28 0.448-1.6 0.192-0.096 0.384-0.16 0.576-0.16v0z" fill="#333333"></path>
</svg>
