<?xml version="1.0" encoding="utf-8"?>
<!-- Generated by IcoMoon.io -->
<!DOCTYPE svg PUBLIC "-//W3C//DTD SVG 1.1//EN" "http://www.w3.org/Graphics/SVG/1.1/DTD/svg11.dtd">
<svg version="1.1" xmlns="http://www.w3.org/2000/svg" xmlns:xlink="http://www.w3.org/1999/xlink" width="32" height="32" viewBox="0 0 32 32">
<path d="M5.184 19.584c-1.984 0-3.584-1.6-3.584-3.584s1.6-3.584 3.584-3.584c1.984 0 3.584 1.6 3.584 3.584 0.032 1.984-1.568 3.584-3.584 3.584z" fill="#333333"></path>
<path d="M16 19.584c-1.984 0-3.584-1.6-3.584-3.584s1.6-3.584 3.584-3.584c1.984 0 3.584 1.6 3.584 3.584s-1.6 3.584-3.584 3.584z" fill="#333333"></path>
<path d="M26.816 19.584c-1.984 0-3.584-1.6-3.584-3.584s1.6-3.584 3.584-3.584c1.984 0 3.584 1.6 3.584 3.584s-1.6 3.584-3.584 3.584z" fill="#333333"></path>
</svg>
