<?xml version="1.0" encoding="utf-8"?>
<!-- Generated by IcoMoon.io -->
<!DOCTYPE svg PUBLIC "-//W3C//DTD SVG 1.1//EN" "http://www.w3.org/Graphics/SVG/1.1/DTD/svg11.dtd">
<svg version="1.1" xmlns="http://www.w3.org/2000/svg" xmlns:xlink="http://www.w3.org/1999/xlink" width="32" height="32" viewBox="0 0 32 32">
<path d="M12.768 1.6c-3.424 0-6.624 1.536-8.768 4.224-3.232 4.032-3.168 10.080 0.128 14.080 2.144 2.592 5.312 4.064 8.64 4.064 2.112 0 4.192-0.608 5.984-1.728l0.192-0.128 7.584 7.648c0.832 0.864 2.336 0.864 3.168 0 0.448-0.448 0.704-1.024 0.704-1.632s-0.224-1.152-0.64-1.6l-7.616-7.616 0.128-0.192c2.784-4.448 2.112-10.112-1.568-13.824-2.112-2.144-4.928-3.296-7.936-3.296zM18.4 18.432c-1.504 1.504-3.52 2.336-5.632 2.336-2.144 0-4.128-0.832-5.632-2.336s-2.336-3.52-2.336-5.632c0-2.144 0.832-4.128 2.336-5.632s3.52-2.336 5.632-2.336c2.144 0 4.128 0.832 5.632 2.336s2.336 3.52 2.336 5.632-0.832 4.128-2.336 5.632z" fill="#333333"></path>
</svg>
