<?xml version="1.0" encoding="utf-8"?>
<!-- Generator: Adobe Illustrator 18.0.0, SVG Export Plug-In . SVG Version: 6.00 Build 0)  -->
<!DOCTYPE svg PUBLIC "-//W3C//DTD SVG 1.1//EN" "http://www.w3.org/Graphics/SVG/1.1/DTD/svg11.dtd">
<svg version="1.1" id="Layer_1" xmlns="http://www.w3.org/2000/svg" xmlns:xlink="http://www.w3.org/1999/xlink" x="0px" y="0px"
	 viewBox="0 0 880 660" enable-background="new 0 0 880 660" xml:space="preserve">
<rect fill="#00AAFF" width="880" height="660"/>
<g>
	<g>
		<path fill="#FFFFFF" d="M428.4,208.3v100h-23.1v-41h-39.8v41h-23.1v-100h23.1V247h39.8v-38.7H428.4z"/>
		<path fill="#FFFFFF" d="M481,309.7c-6.3,0-11.9-1-16.8-3.1c-4.9-2.1-9.1-4.9-12.5-8.4c-3.4-3.5-5.9-7.6-7.7-12.2
			c-1.7-4.6-2.6-9.5-2.6-14.6c0-5.1,0.9-9.9,2.6-14.6c1.7-4.6,4.3-8.7,7.7-12.2c3.4-3.5,7.5-6.3,12.5-8.4c4.9-2.1,10.5-3.2,16.8-3.2
			c6.3,0,11.9,1.1,16.8,3.2c4.9,2.1,9,4.9,12.4,8.4c3.4,3.5,6,7.6,7.7,12.2c1.8,4.6,2.7,9.5,2.7,14.6c0,5.1-0.9,9.9-2.6,14.6
			c-1.7,4.6-4.3,8.7-7.7,12.2c-3.4,3.5-7.5,6.3-12.5,8.4S487.3,309.7,481,309.7z M464.5,271.4c0,5.8,1.5,10.5,4.6,14
			c3.1,3.5,7,5.3,11.8,5.3c2.3,0,4.5-0.5,6.5-1.4c2-0.9,3.7-2.3,5.1-3.9c1.5-1.7,2.6-3.7,3.5-6.1s1.3-5,1.3-7.8
			c0-5.8-1.5-10.5-4.6-14c-3.1-3.5-7-5.3-11.7-5.3c-2.3,0-4.5,0.5-6.5,1.4c-2,0.9-3.8,2.3-5.2,3.9c-1.5,1.7-2.6,3.7-3.5,6.1
			S464.5,268.6,464.5,271.4z"/>
		<path fill="#FFFFFF" d="M578.3,309.7c-5.6,0-10.5-1.2-14.6-3.5c-4.1-2.3-7.4-5.6-9.7-9.9v42h-22.5V234.4h19.7v12
			c2.7-4.2,6.1-7.5,10.1-9.9c4-2.3,8.9-3.5,14.5-3.5c5,0,9.6,1,13.8,3c4.2,2,7.9,4.7,10.9,8.1c3,3.4,5.4,7.5,7.2,12.1
			c1.7,4.6,2.6,9.6,2.6,15c0,5.5-0.8,10.7-2.4,15.3c-1.6,4.7-3.8,8.8-6.7,12.2c-2.9,3.4-6.2,6.1-10.1,8.1
			C587.1,308.7,582.9,309.7,578.3,309.7z M570.5,290.7c2.4,0,4.7-0.5,6.7-1.6c2-1.1,3.8-2.5,5.3-4.3c1.5-1.8,2.7-3.9,3.4-6.3
			c0.8-2.4,1.2-4.9,1.2-7.5c0-2.7-0.4-5.2-1.3-7.5c-0.9-2.3-2.1-4.3-3.7-6s-3.4-3-5.6-3.9c-2.2-0.9-4.6-1.4-7.2-1.4
			c-3.1,0-6.1,0.9-8.9,2.7c-2.8,1.8-5,4.3-6.6,7.4v15.2c1.5,3.8,3.8,6.9,6.8,9.4C563.8,289.4,567,290.7,570.5,290.7z"/>
	</g>
	<g>
		<path fill="#FFFFFF" d="M404,368.9c-0.4-0.4-1.4-1.1-3.1-2.1c-1.7-1-3.8-2.1-6.3-3.2c-2.5-1.1-5.3-2.1-8.3-3c-3-0.8-6-1.3-9-1.3
			c-3.9,0-7,0.7-9.1,2.1c-2.1,1.4-3.2,3.5-3.2,6.2c0,1.7,0.5,3.1,1.4,4.2c0.9,1.1,2.3,2.1,4,3c1.7,0.9,3.9,1.7,6.5,2.5
			c2.6,0.8,5.6,1.6,8.9,2.5c4.8,1.3,9.1,2.7,13,4.3c3.8,1.5,7.1,3.5,9.9,5.8c2.7,2.3,4.8,5.1,6.3,8.4c1.5,3.3,2.2,7.2,2.2,11.8
			c0,5.6-1.1,10.4-3.2,14.3c-2.1,3.9-4.9,7-8.4,9.4c-3.5,2.4-7.5,4.1-12,5.2c-4.6,1.1-9.2,1.6-14,1.6c-3.7,0-7.4-0.3-11.2-0.8
			c-3.8-0.6-7.5-1.4-11.2-2.5c-3.7-1.1-7.2-2.4-10.7-3.9c-3.5-1.5-6.7-3.2-9.6-5.2l10.1-20.1c0.5,0.5,1.7,1.4,3.8,2.7
			c2.1,1.3,4.6,2.6,7.6,3.9c3,1.3,6.4,2.5,10.1,3.5c3.8,1,7.6,1.5,11.4,1.5c8.2,0,12.2-2.5,12.2-7.5c0-1.9-0.6-3.4-1.8-4.6
			c-1.2-1.2-2.9-2.3-5.1-3.3c-2.2-1-4.7-1.9-7.6-2.7c-2.9-0.8-6.1-1.8-9.6-2.8c-4.6-1.4-8.6-2.9-12-4.6c-3.4-1.6-6.2-3.5-8.4-5.7
			c-2.3-2.2-3.9-4.6-5-7.5c-1.1-2.8-1.6-6.1-1.6-9.9c0-5.3,1-9.9,3-13.9c2-4,4.6-7.4,8-10.2c3.4-2.8,7.3-4.9,11.8-6.3
			c4.5-1.4,9.2-2.1,14.2-2.1c3.6,0,7,0.3,10.4,1c3.4,0.7,6.6,1.5,9.6,2.5c3,1,5.9,2.2,8.7,3.5c2.7,1.3,5.2,2.6,7.3,3.9L404,368.9z"
			/>
		<path fill="#FFFFFF" d="M424.4,402.5c0-5.1,0.9-9.9,2.7-14.6c1.8-4.6,4.4-8.7,7.7-12.2c3.4-3.5,7.5-6.3,12.5-8.4
			c4.9-2.1,10.5-3.1,16.8-3.1c8.5,0,15.7,1.8,21.5,5.4c5.8,3.6,10.2,8.3,13.1,14.2l-22,6.6c-2.9-4.7-7.2-7-12.8-7
			c-4.7,0-8.6,1.7-11.8,5.2c-3.1,3.5-4.7,8.1-4.7,13.9c0,2.9,0.4,5.6,1.3,8s2,4.4,3.5,6.1c1.5,1.7,3.3,3,5.3,3.9
			c2,0.9,4.2,1.4,6.4,1.4c2.8,0,5.4-0.7,7.7-2c2.3-1.4,4.1-3.1,5.2-5.3l22,6.8c-2.7,5.7-7.1,10.4-13,14.1c-6,3.7-13.2,5.5-21.8,5.5
			c-6.2,0-11.8-1.1-16.7-3.2c-4.9-2.1-9.1-4.9-12.5-8.4c-3.4-3.5-6-7.6-7.8-12.2C425.3,412.5,424.4,407.6,424.4,402.5z"/>
		<path fill="#FFFFFF" d="M543.5,441c-6.3,0-11.9-1-16.8-3.1c-4.9-2.1-9.1-4.9-12.5-8.4c-3.4-3.5-5.9-7.6-7.7-12.2
			c-1.7-4.6-2.6-9.5-2.6-14.6c0-5.1,0.9-9.9,2.6-14.6c1.7-4.6,4.3-8.7,7.7-12.2c3.4-3.5,7.5-6.3,12.5-8.4c4.9-2.1,10.5-3.2,16.8-3.2
			c6.3,0,11.9,1.1,16.8,3.2c4.9,2.1,9,4.9,12.4,8.4c3.4,3.5,6,7.6,7.7,12.2c1.8,4.6,2.7,9.5,2.7,14.6c0,5.1-0.9,9.9-2.6,14.6
			c-1.7,4.6-4.3,8.7-7.7,12.2c-3.4,3.5-7.5,6.3-12.5,8.4S549.8,441,543.5,441z M527.1,402.7c0,5.8,1.5,10.5,4.6,14
			c3.1,3.5,7,5.3,11.8,5.3c2.3,0,4.5-0.5,6.5-1.4c2-0.9,3.7-2.3,5.1-3.9c1.5-1.7,2.6-3.7,3.5-6.1s1.3-5,1.3-7.8
			c0-5.8-1.5-10.5-4.6-14c-3.1-3.5-7-5.3-11.7-5.3c-2.3,0-4.5,0.5-6.5,1.4c-2,0.9-3.8,2.3-5.2,3.9c-1.5,1.7-2.6,3.7-3.5,6.1
			S527.1,399.9,527.1,402.7z"/>
		<path fill="#FFFFFF" d="M640.8,435.6c-3.1,1.3-6.6,2.5-10.6,3.7c-3.9,1.1-8,1.7-12.1,1.7c-2.8,0-5.5-0.4-8-1.1
			c-2.5-0.7-4.7-1.8-6.5-3.4c-1.9-1.5-3.4-3.6-4.4-6.1c-1.1-2.5-1.6-5.6-1.6-9.2v-38.6h-9.4v-17h9.4v-23.5h22.5v23.5h15.1v17h-15.1
			v30.8c0,2.4,0.6,4.2,1.9,5.3c1.3,1.1,2.8,1.6,4.7,1.6c1.6,0,3.3-0.3,5.1-0.8c1.8-0.6,3.4-1.2,4.8-1.8L640.8,435.6z"/>
		<path fill="#FFFFFF" d="M645.2,402.5c0-5.1,0.9-9.9,2.7-14.6c1.8-4.6,4.4-8.7,7.7-12.2c3.4-3.5,7.5-6.3,12.5-8.4
			c4.9-2.1,10.5-3.1,16.8-3.1c8.5,0,15.7,1.8,21.5,5.4c5.8,3.6,10.2,8.3,13.1,14.2l-22,6.6c-2.9-4.7-7.2-7-12.8-7
			c-4.7,0-8.6,1.7-11.8,5.2c-3.1,3.5-4.7,8.1-4.7,13.9c0,2.9,0.4,5.6,1.3,8s2,4.4,3.5,6.1c1.5,1.7,3.3,3,5.3,3.9
			c2,0.9,4.2,1.4,6.4,1.4c2.8,0,5.4-0.7,7.7-2c2.3-1.4,4.1-3.1,5.2-5.3l22,6.8c-2.7,5.7-7.1,10.4-13,14.1c-6,3.7-13.2,5.5-21.8,5.5
			c-6.2,0-11.8-1.1-16.7-3.2c-4.9-2.1-9.1-4.9-12.5-8.4c-3.4-3.5-6-7.6-7.8-12.2C646.1,412.5,645.2,407.6,645.2,402.5z"/>
		<path fill="#FFFFFF" d="M801.1,439.6h-22.5V398c0-4.8-1-8.3-2.9-10.6c-1.9-2.3-4.5-3.4-7.8-3.4c-1.3,0-2.7,0.3-4.3,0.9
			c-1.5,0.6-3.1,1.5-4.5,2.7c-1.5,1.2-2.8,2.6-4,4.2c-1.2,1.6-2.2,3.4-2.8,5.4v42.4h-22.5V336.8h22.5V378c2.7-4.4,6.3-7.8,10.8-10.2
			c4.5-2.4,9.4-3.6,14.9-3.6c5,0,9,0.9,12,2.6c3,1.7,5.4,3.9,7,6.6c1.6,2.7,2.7,5.7,3.3,9c0.6,3.3,0.8,6.6,0.8,9.8V439.6z"/>
	</g>
	<g>
		<g>
			<path fill="#FFFFFF" d="M297,215v216H81V215H297 M306,206H72v234h234V206L306,206z"/>
		</g>
		<line fill="none" stroke="#FFFFFF" stroke-width="9" x1="72" y1="284.5" x2="306" y2="284.5"/>
		<line fill="none" stroke="#FFFFFF" stroke-width="9" x1="72" y1="361.5" x2="306" y2="361.5"/>
		<line fill="none" stroke="#FFFFFF" stroke-width="9" x1="189.5" y1="210" x2="189.5" y2="285"/>
		<line fill="none" stroke="#FFFFFF" stroke-width="9" x1="189.5" y1="361" x2="189.5" y2="435"/>
		<line fill="none" stroke="#FFFFFF" stroke-width="5" x1="133" y1="322.5" x2="245" y2="322.5"/>
		<line fill="none" stroke="#FFFFFF" stroke-width="5" x1="132.5" y1="309" x2="132.5" y2="334"/>
		<line fill="none" stroke="#FFFFFF" stroke-width="5" x1="245.5" y1="309" x2="245.5" y2="334"/>
	</g>
</g>
</svg>
