<?xml version="1.0" encoding="utf-8"?>
<!-- Generated by IcoMoon.io -->
<!DOCTYPE svg PUBLIC "-//W3C//DTD SVG 1.1//EN" "http://www.w3.org/Graphics/SVG/1.1/DTD/svg11.dtd">
<svg version="1.1" xmlns="http://www.w3.org/2000/svg" xmlns:xlink="http://www.w3.org/1999/xlink" width="48" height="48" viewBox="0 0 48 48">
<g>
</g>
	<path d="M18.6 0c-5.7 0-11.1 2.55-14.55 7.050-5.4 6.75-5.25 16.8 0.15 23.4 3.6 4.35 8.85 6.75 14.4 6.75 3.6 0 7.050-1.050 9.9-2.85l0.3-0.15 12.6 12.75c1.35 1.35 3.9 1.35 5.25 0 0.75-0.75 1.2-1.65 1.2-2.7 0-1.050-0.45-1.95-1.050-2.7l-12.6-12.75 0.3-0.3c4.65-7.35 3.6-16.8-2.7-23.1-3.45-3.45-8.25-5.4-13.2-5.4zM28.050 28.050c-2.55 2.55-5.85 3.9-9.45 3.9s-6.9-1.35-9.45-3.9c-2.55-2.55-3.9-5.85-3.9-9.45 0-3.6 1.35-6.9 3.9-9.45 2.55-2.55 5.85-3.9 9.45-3.9 3.6 0 6.9 1.35 9.45 3.9 2.55 2.55 3.9 5.85 3.9 9.45s-1.35 6.9-3.9 9.45z" fill="#000000"></path>
</svg>
