<?xml version="1.0" encoding="utf-8"?>
<!-- Generator: Adobe Illustrator 18.1.1, SVG Export Plug-In . SVG Version: 6.00 Build 0)  -->
<svg version="1.1" id="Layer_1" xmlns="http://www.w3.org/2000/svg" xmlns:xlink="http://www.w3.org/1999/xlink" x="0px" y="0px"
	 viewBox="-289 381 32 32" enable-background="new -289 381 32 32" xml:space="preserve">
<path fill="#333333" d="M-283.4,389.2l10.4,10.6l10.4-10.6c0.9-1,2.4-1,3.4,0s0.9,2.5,0,3.4l-12,12.3l0,0l0,0
	c-0.4,0.4-1,0.7-1.6,0.7c0,0-0.1,0-0.1,0c0,0-0.1,0-0.1,0c-0.6,0-1.1-0.3-1.6-0.7l0,0l0,0l-12.1-12.3c-0.9-1-1-2.5,0-3.4
	S-284.3,388.2-283.4,389.2z"/>
</svg>
