<?xml version="1.0" encoding="utf-8"?>
<!-- Generated by IcoMoon.io -->
<!DOCTYPE svg PUBLIC "-//W3C//DTD SVG 1.1//EN" "http://www.w3.org/Graphics/SVG/1.1/DTD/svg11.dtd">
<svg version="1.1" xmlns="http://www.w3.org/2000/svg" xmlns:xlink="http://www.w3.org/1999/xlink" width="48" height="48" viewBox="0 0 48 48">
<g>
</g>
	<path d="M6.75 10.95l17.25 17.7 17.25-17.7c1.5-1.65 4.050-1.65 5.55 0 1.5 1.5 1.5 4.050 0 5.7l-19.95 20.4c0 0 0 0 0 0s0 0 0 0c-0.75 0.75-1.65 1.050-2.55 1.2 0 0-0.15 0-0.15 0 0 0-0.15 0-0.15 0-0.9 0-1.95-0.45-2.55-1.2 0 0 0 0 0 0 0 0 0 0 0 0l-20.25-20.4c-1.5-1.65-1.5-4.2 0-5.7 1.5-1.65 3.9-1.65 5.55 0z" fill="#ffffff"></path>
</svg>
